<?xml version="1.0" encoding="utf-8"?>
<!-- Generator: Adobe Illustrator 22.0.1, SVG Export Plug-In . SVG Version: 6.00 Build 0)  -->
<svg version="1.1" id="圖層_1" xmlns="http://www.w3.org/2000/svg" xmlns:xlink="http://www.w3.org/1999/xlink" x="0px" y="0px"
	 viewBox="0 0 283.5 198.4" style="enable-background:new 0 0 283.5 198.4;" xml:space="preserve">
<style type="text/css">
	.st0{fill:#FFFFFF;}
	.st1{fill:#5F3819;}
</style>
<g>
	<g>
		<path class="st0" d="M75.6,198.4C29.7,198.4,0,167.3,0,119.2c0-47.3,31.1-80.4,75.6-80.4c24.1,0,40,10.9,49.2,20
			c2,2,2.1,5.1,0.3,7.3l-15.6,18.2c-1,1.1-2.4,1.8-3.9,1.9c-1.5,0.1-3-0.5-4.1-1.5c-5.7-5.5-12.7-10.5-24.8-10.5
			c-22.1,0-35.8,16.9-35.8,44c0,20.4,6.6,44.6,37.8,44.6c4.9,0,9.7-1.1,12.9-2.8v-20.1H71.1c-3,0-5.5-2.4-5.5-5.4v-23.5
			c0-3,2.5-5.4,5.5-5.4h52c3,0,5.5,2.4,5.5,5.4v64.7c0,1.5-0.6,2.8-1.6,3.9C114.7,191.4,95.5,198.4,75.6,198.4z M75.6,49.6
			C37,49.6,11,77.6,11,119.2c0,42.2,24.8,68.4,64.7,68.4c18.8,0,33.6-7.1,41.9-14.2v-57h-41v12.7H97c3,0,5.5,2.4,5.5,5.4v28.3
			c0,1.6-0.7,3.1-1.9,4.1c-5,4.2-13.2,6.7-21.9,6.7c-31,0-48.8-20.2-48.8-55.4c0-32.8,18.8-54.8,46.8-54.8c12.9,0,21.7,4.6,28.1,9.7
			l8.6-10.1C102.9,54.1,90.2,49.6,75.6,49.6z"/>
	</g>
	<g>
		<path class="st0" d="M212.6,198.4c-42.4,0-70.9-32.3-70.9-80.4c0-48.1,27.8-79.2,70.9-79.2s70.9,31.1,70.9,79.2
			C283.5,166.1,255,198.4,212.6,198.4z M212.6,49.6c-37,0-59.9,26.2-59.9,68.4c0,42.3,23.5,69.6,59.9,69.6
			c36.4,0,59.9-27.3,59.9-69.6C272.5,75.8,249.5,49.6,212.6,49.6z"/>
	</g>
	<g>
		<path class="st0" d="M248.2,118c0,30.6-13.8,50.2-35.6,50.2c-21.7,0-35.6-19.6-35.6-50.2c0-30.8,13.8-49.2,35.6-49.2
			C234.3,68.8,248.2,87.2,248.2,118z"/>
		<path class="st0" d="M212.6,169.6c-22.4,0-36.9-20.2-36.9-51.5c0-31.2,14.2-50.6,36.9-50.6c22.8,0,37,19.4,37,50.6
			C249.5,149.3,235,169.6,212.6,169.6z M212.6,70.2c-21.1,0-34.2,18.3-34.2,47.9c0,29.7,13.4,48.8,34.2,48.8
			c20.8,0,34.2-19.2,34.2-48.8C246.8,88.5,233.7,70.2,212.6,70.2z"/>
	</g>
	<g>
		<path class="st1" d="M211.7,134.6c-3,0-5.5-2.4-5.5-5.4V35.5l34.5-33.9c2.1-2.1,5.6-2.1,7.8,0c2.1,2.1,2.1,5.5,0,7.6l-31.3,30.7
			v89.3C217.2,132.2,214.7,134.6,211.7,134.6z"/>
	</g>
</g>
</svg>
